<?xml version="1.0" encoding="UTF-8"?>
<svg version="1.1" xmlns="http://www.w3.org/2000/svg" width="4096" height="4096">
<path d="M0 0 C1351.68 0 2703.36 0 4096 0 C4096 1351.68 4096 2703.36 4096 4096 C2744.32 4096 1392.64 4096 0 4096 C0 2744.32 0 1392.64 0 0 Z " fill="#FEFEFE" transform="translate(0,0)"/>
<path d="M0 0 C14.62970887 -0.07013491 29.25939543 -0.12301009 43.88923836 -0.15543652 C50.68240103 -0.17089403 57.47545914 -0.19196206 64.26855469 -0.22631836 C70.82375573 -0.25945565 77.37888891 -0.27685164 83.93416977 -0.28463173 C86.43562404 -0.2901765 88.93707233 -0.30100397 91.43848038 -0.31719017 C94.94105142 -0.33895416 98.44317304 -0.34196728 101.94580078 -0.34057617 C102.98086258 -0.351362 104.01592438 -0.36214783 105.08235168 -0.3732605 C111.75008784 -0.34458861 116.18492132 0.48874094 121.31640625 5.06640625 C128.93622284 13.53434156 135.49643925 22.66150062 142 32 C142.4434375 32.62890137 142.886875 33.25780273 143.34375 33.90576172 C153.98447801 49.03970339 162.9688427 65.37850069 171.04589844 82.00585938 C172.28743162 84.55706782 173.55003519 87.09508466 174.84204102 89.62109375 C179.48475156 98.71551487 183.7023309 107.93463852 187.68261719 117.33666992 C188.6269833 119.56718439 189.57848631 121.79454568 190.53125 124.02148438 C196.07051726 137.00179438 201.46395156 150.02636974 206.0625 163.375 C206.40120117 164.35178711 206.73990234 165.32857422 207.08886719 166.33496094 C209.54892473 173.50407048 211.76693561 180.71390271 213.796875 188.015625 C214.69230296 191.12293529 215.7654449 194.13650766 216.890625 197.16796875 C230.63719597 234.50662775 233.78659231 273.99551575 235.3374939 313.46292114 C235.61480367 320.51791912 235.92631247 327.57146349 236.23828125 334.625 C236.26899027 335.32430193 236.29969929 336.02360386 236.33133888 336.74409676 C237.18974863 356.18832936 238.56997164 375.59108201 240 395 C240.75300982 394.98802708 241.50601965 394.97605415 242.28184795 394.96371841 C293.83153467 394.15208235 345.37479778 393.78429958 396.93078244 393.76117182 C406.14050569 393.75696067 415.35012536 393.74473411 424.55981445 393.71875 C471.5328345 393.58915126 518.41776813 393.94940098 565.35700989 395.85760498 C626.51635162 398.34254282 687.71173641 398.16139767 748.90993494 398.18449977 C761.6388404 398.18951509 774.36773961 398.20028967 787.09664116 398.21120207 C809.87122673 398.23059626 832.64581306 398.24615728 855.42040312 398.25913597 C879.38715136 398.27279477 903.35389619 398.28879259 927.32064056 398.30812073 C928.04749189 398.30870638 928.77434322 398.30929203 929.52322035 398.30989543 C937.64824894 398.31644804 945.77327747 398.32307594 953.89830598 398.32973462 C968.91746762 398.34204057 983.93662952 398.35403085 998.95579147 398.36594391 C1000.0823819 398.36683817 1000.0823819 398.36683817 1001.23173174 398.3677505 C1036.86050587 398.39601618 1072.48928191 398.42140765 1108.11805866 398.44611801 C1110.47720427 398.44775435 1112.83634988 398.44939214 1115.19549548 398.45103026 C1139.67135574 398.46802229 1164.14721613 398.48484048 1188.62307653 398.50162761 C1212.31034499 398.51787402 1235.99761342 398.53416703 1259.68488175 398.55060832 C1262.04425678 398.55224563 1264.40363181 398.55388149 1266.76300684 398.5555172 C1302.3724661 398.58021468 1337.98192445 398.60578808 1373.59138107 398.63405609 C1374.34181375 398.63465137 1375.09224643 398.63524665 1375.86541949 398.63585997 C1390.86663007 398.64776368 1405.86784055 398.65979373 1420.86905082 398.67209033 C1428.98424134 398.67874147 1437.09943189 398.68533918 1445.2146225 398.69187927 C1445.94041099 398.69246472 1446.66619949 398.69305016 1447.41398158 398.69365335 C1471.36663551 398.71293993 1495.31929028 398.72844276 1519.27194804 398.74208651 C1542.6420864 398.75541778 1566.01222021 398.77212913 1589.38235381 398.79218161 C1602.01117001 398.80291355 1614.63998266 398.81211673 1627.26880264 398.81687737 C1716.39992577 398.85182641 1716.39992577 398.85182641 1755.89783677 399.69871167 C1756.91797046 399.72056333 1757.93810416 399.74241499 1758.989151 399.76492882 C1759.98817101 399.78636918 1760.98719102 399.80780953 1762.01648436 399.8298996 C1780.88347494 400.21905799 1799.75708354 400.22467774 1818.62738484 400.28895417 C1823.37042025 400.30573841 1828.11344228 400.32541424 1832.85646674 400.34502096 C1845.84996471 400.39870647 1858.84347882 400.44673019 1871.8370088 400.49189736 C1880.86177011 400.52328617 1889.88652536 400.55604226 1898.91127813 400.589795 C1975.51297151 400.87605062 2052.11468519 401.06639566 2174.61241411 401.23674356 C2180.26757968 401.24399659 2185.92274509 401.25136042 2191.57791042 401.25879335 C2247.14795916 401.331809 2302.71801441 401.40396824 2358.28808594 401.45739746 C2359.54143974 401.45860309 2359.54143974 401.45860309 2360.82011382 401.45983307 C2367.57728671 401.46632414 2374.33445962 401.47277839 2381.09163255 401.47921998 C2409.15190604 401.50600898 2437.21216565 401.53935555 2465.2724226 401.57999813 C2469.24090935 401.58573917 2473.20939621 401.59139825 2477.17788315 401.59700203 C2477.95736237 401.59810383 2478.73684158 401.59920564 2479.53994138 401.60034083 C2491.06420475 401.61644053 2502.58846358 401.62684883 2514.11273575 401.63390923 C2632.57106644 401.70843167 2632.57106644 401.70843167 2677.39005625 403.60721415 C2686.2355986 403.98189748 2695.08259596 404.27662874 2703.93167114 404.55223083 C2704.60670539 404.57352749 2705.28173963 404.59482415 2705.97722946 404.61676616 C2717.44334664 404.97732613 2728.90308916 405.23616688 2740.375 405.25 C2741.79147827 405.25350464 2741.79147827 405.25350464 2743.23657227 405.25708008 C2758.20291295 405.27054893 2773.07038549 404.624485 2788.00588989 403.71313477 C2815.00176262 402.06643251 2841.89662726 401.71692369 2868.9375 401.75 C2870.86816405 401.75107409 2872.79882812 401.75213216 2874.72949219 401.75317383 C2879.33763863 401.75714764 2883.94570755 401.76864828 2888.55381966 401.78679657 C2890.26108438 401.79341823 2891.9683542 401.7988513 2893.67562675 401.80298615 C2896.04284122 401.80988624 2898.40992753 401.82337934 2900.77709961 401.83886719 C2901.45072792 401.83997749 2902.12435623 401.8410878 2902.81839752 401.84223175 C2906.57731652 401.87505525 2910.26666369 402.10138102 2914.00749207 402.47601318 C2921.35857759 403.18236316 2928.72472483 403.35233959 2936.10302734 403.54492188 C2936.86287705 403.56572028 2937.62272676 403.58651869 2938.40560222 403.60794735 C2954.32961962 404.04106887 2970.25101521 404.19566855 2986.18014193 404.27039146 C2989.92312508 404.28910885 2993.66607304 404.31329145 2997.4090271 404.33703613 C3008.42713184 404.40599736 3019.44527922 404.46679942 3030.46343994 404.52606201 C3039.13293873 404.57279627 3047.80241251 404.6217653 3056.47185838 404.67754889 C3060.90308387 404.70580708 3065.33430195 404.7294224 3069.76557183 404.74947357 C3073.13231511 404.76592623 3076.49900993 404.78873627 3079.86572266 404.81054688 C3081.08819199 404.81473129 3082.31066132 404.81891571 3083.57017517 404.82322693 C3084.67370834 404.83157059 3085.77724152 404.83991425 3086.91421509 404.84851074 C3088.36007209 404.85624134 3088.36007209 404.85624134 3089.83513832 404.86412811 C3092 405 3092 405 3093 406 C3093.09413687 408.05556661 3093.11742998 410.11440181 3093.11352539 412.17211914 C3093.11374443 413.13794167 3093.11374443 413.13794167 3093.1139679 414.12327576 C3093.11326885 416.26060303 3093.10547691 418.39784413 3093.09765625 420.53515625 C3093.09579204 422.01346285 3093.09436815 423.49177007 3093.09336853 424.97007751 C3093.08954359 428.86798802 3093.07971352 432.76586149 3093.06866455 436.66375732 C3093.05844992 440.63846333 3093.0538708 444.61317529 3093.04882812 448.58789062 C3093.03809122 456.391944 3093.02101509 464.19596682 3093 472 C3090.24752956 473.37623522 3088.04225912 473.13139049 3084.95985985 473.1386652 C3083.01537706 473.14687687 3083.01537706 473.14687687 3081.0316118 473.15525442 C3079.57937334 473.15633077 3078.12713482 473.15731543 3076.67489624 473.15821838 C3075.14286787 473.16278118 3073.61084075 473.16778078 3072.0788151 473.17318195 C3067.85335265 473.18680464 3063.62789827 473.19419332 3059.40241957 473.20060861 C3054.85161862 473.20859447 3050.30083459 473.22229846 3045.75004578 473.23532104 C3037.86032005 473.25710961 3029.97059264 473.27524537 3022.08085251 473.29092598 C3010.67350065 473.31360297 2999.2661675 473.34174878 2987.85883148 473.37124526 C2969.352836 473.41894783 2950.84683289 473.46220477 2932.34082031 473.50268555 C2914.36002 473.54202693 2896.37922647 473.58344988 2878.3984375 473.62768555 C2877.29078759 473.63040982 2876.18313768 473.63313409 2875.04192261 473.63594092 C2869.48537336 473.64962017 2863.92882421 473.66334049 2858.37227511 473.67708123 C2812.24819756 473.79108786 2766.12410532 473.89788794 2720 474 C2718.86903614 478.06614979 2718.8669223 481.97164373 2718.88647461 486.16503906 C2718.88632858 486.9849231 2718.88618256 487.80480713 2718.8860321 488.64953613 C2718.88672782 491.35492616 2718.89450428 494.06024702 2718.90234375 496.765625 C2718.90420914 498.64320844 2718.90563247 500.52079237 2718.90663147 502.39837646 C2718.91044711 507.33688707 2718.92026929 512.27536821 2718.93133545 517.21386719 C2718.94157004 522.25455324 2718.94613348 527.29524405 2718.95117188 532.3359375 C2718.96189239 542.22397127 2718.9789574 552.11198318 2719 562 C2724.79419635 560.8574082 2730.57424762 559.67748847 2736.3359375 558.37890625 C2736.98140533 558.23347885 2737.62687317 558.08805145 2738.29190063 557.93821716 C2739.64135194 557.63381563 2740.9906661 557.32880549 2742.33984375 557.02319336 C2744.36415129 556.5649558 2746.38907134 556.10950272 2748.4140625 555.65429688 C2754.36970788 554.31030772 2760.30880459 552.93444532 2766.21875 551.3984375 C2772.14071442 549.90128932 2778.08340926 548.93583607 2784.125 548.0625 C2786.39975611 547.72276692 2788.67449518 547.38291969 2790.94921875 547.04296875 C2792.10728027 546.87200684 2793.2653418 546.70104492 2794.45849609 546.52490234 C2800.28779309 545.66091582 2806.1126282 544.76824818 2811.9375 543.875 C2812.98373535 543.71652588 2814.0299707 543.55805176 2815.10791016 543.39477539 C2816.61490479 543.16455688 2816.61490479 543.16455688 2818.15234375 542.9296875 C2819.01851318 542.79804199 2819.88468262 542.66639648 2820.77709961 542.53076172 C2822.66194207 542.22035739 2824.54393203 541.88875125 2826.41542053 541.50598145 C2833.11842024 540.16799929 2839.49003115 539.70673828 2846.31640625 539.734375 C2847.36333649 539.73160049 2848.41026672 539.72882599 2849.48892212 539.72596741 C2852.84691956 539.72184654 2856.20454047 539.73432359 2859.5625 539.75 C2860.70594879 539.75276947 2861.84939758 539.75553894 2863.02749634 539.75839233 C2905.60441577 539.87989007 2905.60441577 539.87989007 2925.77880859 544.49316406 C2927.40952596 544.86526444 2929.04312586 545.22479029 2930.67822266 545.57714844 C2957.15179735 551.2937846 2984.45117134 558.42160696 3005 577 C3005.7940625 577.70125 3006.588125 578.4025 3007.40625 579.125 C3015.23779557 586.46087813 3021.07636905 595.10922081 3027 604 C3028.10021484 605.62421875 3028.10021484 605.62421875 3029.22265625 607.28125 C3040.65900685 624.92460599 3048.22501375 644.98972955 3051.421875 665.7109375 C3051.64724221 668.83858132 3051.64724221 668.83858132 3053 670 C3053.10639855 671.72777477 3053.14243126 673.45990918 3053.15148926 675.19093323 C3053.16400144 676.88560966 3053.16400144 676.88560966 3053.1767664 678.61452198 C3053.18095302 679.86909545 3053.18513964 681.12366892 3053.18945312 682.41625977 C3053.19776626 683.73410052 3053.20607939 685.05194128 3053.21464443 686.40971661 C3053.23284099 689.30316848 3053.24785304 692.19661403 3053.26048088 695.09009552 C3053.28081298 699.74554085 3053.30801837 704.40093118 3053.33607483 709.05633545 C3053.37560941 715.73420863 3053.4118653 722.41209259 3053.4458313 729.08999634 C3053.52620811 744.86080263 3053.62045634 760.6315293 3053.71469307 776.40225792 C3053.73573401 779.92465775 3053.75652629 783.44705892 3053.77711296 786.96946144 C3053.90361946 808.56871819 3054.05507131 830.16718213 3054.28515625 851.765625 C3054.30280029 853.42293766 3054.30280029 853.42293766 3054.32080078 855.11373138 C3054.37807193 860.45966016 3054.43638075 865.80557708 3054.49517822 871.15148926 C3054.88754411 906.92242965 3055.10568069 942.69069717 3055.12293625 978.46389389 C3055.12498409 981.78669227 3055.12873213 985.10948509 3055.13284302 988.43228149 C3055.13864022 993.57308412 3055.13889162 998.71385635 3055.13438225 1003.85466003 C3055.13334444 1005.74044272 3055.1339032 1007.62622703 3055.13614082 1009.51200867 C3055.13867315 1012.08201167 3055.13493162 1014.65192736 3055.12939453 1017.22192383 C3055.13142159 1017.97375096 3055.13344866 1018.7255781 3055.13553715 1019.50018787 C3055.1227553 1022.60909508 3054.99112115 1025.02663654 3054 1028 C3048.4949677 1028.56570117 3045.19820658 1026.76367649 3040.75 1023.8125 C3040.05817627 1023.36688721 3039.36635254 1022.92127441 3038.65356445 1022.4621582 C3032.60403984 1018.5146961 3026.75153296 1014.2974581 3020.92480469 1010.03051758 C3015.52210487 1006.07534008 3010.04248516 1002.25639693 3004.5 998.5 C2998.196588 994.22273076 2991.97278044 989.85598932 2985.8125 985.375 C2980.0344559 981.17893406 2974.23899469 977.01288982 2968.375 972.9375 C2967.74827393 972.49647949 2967.12154785 972.05545898 2966.47583008 971.60107422 C2959.21161358 966.58745466 2952.07576227 962.26882076 2943 963 C2939.84305361 964.06951095 2936.9131922 965.50595769 2933.9375 967 C2932.68296021 967.61186157 2932.68296021 967.61186157 2931.40307617 968.23608398 C2925.26639939 971.2665489 2919.3457727 974.58182557 2913.4375 978.03515625 C2903.95758499 983.45378949 2894.11295432 988.05829768 2884.0625 992.3125 C2883.29397705 992.63798828 2882.5254541 992.96347656 2881.73364258 993.29882812 C2868.18896604 998.92672094 2854.31318173 1002.64846671 2839.81616211 1004.71264648 C2832.83060734 1005.75630644 2826.04432249 1007.38438689 2819.1875 1009.0625 C2793.19793707 1015.26243346 2765.40686658 1016.21695557 2739 1012 C2737.93265625 1011.84402344 2736.8653125 1011.68804688 2735.765625 1011.52734375 C2723.64714368 1009.6593395 2711.84222624 1006.47038176 2700.00585938 1003.33081055 C2694.29588592 1001.82524392 2688.57710429 1000.4351483 2682.81323242 999.15258789 C2666.79419582 995.55258682 2652.25485276 989.55217861 2637.75292969 981.92138672 C2636.15679989 981.08241822 2634.55150948 980.26093642 2632.9453125 979.44140625 C2601.83851066 963.18303532 2578.83379895 935.73410847 2567 903 C2566.63261719 901.99582031 2566.26523438 900.99164062 2565.88671875 899.95703125 C2564.84951991 896.98960137 2563.90807693 894.00941197 2563 891 C2562.62617188 889.80117187 2562.25234375 888.60234375 2561.8671875 887.3671875 C2557.14649326 871.27501869 2557.89861037 855.87660205 2563 840 C2563.33902344 838.93910156 2563.67804687 837.87820313 2564.02734375 836.78515625 C2569.96639922 820.02476127 2579.41697255 805.15692889 2590 791 C2590.64839844 790.10667969 2591.29679687 789.21335937 2591.96484375 788.29296875 C2596.42015287 782.30712991 2601.65648579 777.18887875 2607 772 C2608.22589844 770.77216797 2608.22589844 770.77216797 2609.4765625 769.51953125 C2618.61962239 760.3906247 2628.13323282 752.81231567 2638.78125 745.52929688 C2641.72437858 743.50071441 2644.6306746 741.42241795 2647.5390625 739.34448242 C2655.53807956 733.64063787 2663.63764624 728.15727044 2672 723 C2673.05832031 722.34644531 2674.11664062 721.69289063 2675.20703125 721.01953125 C2701.08233086 705.64168415 2730.47011458 695.51683275 2760 690 C2760.74024414 689.86045898 2761.48048828 689.72091797 2762.24316406 689.57714844 C2775.05598331 687.23130164 2788.03413302 685.85227488 2800.96801758 684.35717773 C2801.67336136 684.2746022 2802.37870514 684.19202667 2803.10542297 684.10694885 C2805.04721646 683.87993457 2806.9894177 683.65641589 2808.93164062 683.43310547 C2812.03191361 683.08965632 2812.03191361 683.08965632 2815 682 C2825.83671435 681.35672472 2836.33755919 682.23325672 2847.05908203 683.80517578 C2851.97299692 684.51477512 2856.8196941 685.09618235 2861.78125 685.328125 C2895.73306843 686.94786571 2928.10462148 702.26070087 2957.19775391 718.9753418 C2958.44601299 719.6850334 2959.71569072 720.35784536 2961 721 C2960.93094238 714.86150293 2960.84288681 708.72367526 2960.73754883 702.58569336 C2960.70438339 700.49950613 2960.67632557 698.41323098 2960.65356445 696.3269043 C2960.61986431 693.32042121 2960.56754032 690.31473775 2960.51171875 687.30859375 C2960.50532883 686.38227646 2960.4989389 685.45595917 2960.49235535 684.50157166 C2960.28186152 675.13944222 2957.11024632 668.00941777 2950.29296875 661.359375 C2949.26693234 660.47884375 2948.23125212 659.60945768 2947.1875 658.75 C2946.6212793 658.28037842 2946.05505859 657.81075684 2945.47167969 657.3269043 C2910.88662704 629.16870264 2868.45939426 622.31165068 2824.84240723 626.77375793 C2816.34980806 627.68888711 2807.87023134 628.71822816 2799.3984375 629.80859375 C2798.57892609 629.91283661 2797.75941467 630.01707947 2796.91506958 630.1244812 C2792.83101584 630.6087377 2792.83101584 630.6087377 2789 632 C2787.08963094 632.33040974 2785.17095384 632.61305175 2783.25 632.875 C2781.991875 633.0503125 2780.73375 633.225625 2779.4375 633.40625 C2776.23131196 633.84078831 2773.02256974 634.25146115 2769.8125 634.65625 C2760.84724428 635.80376453 2751.95642752 637.05425034 2743.125 639 C2742.41891602 639.15388184 2741.71283203 639.30776367 2740.98535156 639.46630859 C2736.84099505 640.4235379 2732.95334064 641.71354612 2728.99169922 643.25488281 C2725.71538347 644.48058956 2722.36271805 645.41820014 2719 646.375 C2703.65245209 650.8168169 2688.458879 655.62839555 2673.5 661.25 C2672.45134766 661.64405029 2671.40269531 662.03810059 2670.32226562 662.4440918 C2664.0176801 664.82660507 2657.73660093 667.25702861 2651.5 669.8125 C2650.84966797 670.07772461 2650.19933594 670.34294922 2649.52929688 670.61621094 C2646.29544718 671.95999519 2643.16257723 673.4164192 2640.05859375 675.03125 C2636.01695313 677.08348457 2631.90678652 678.42834519 2627.5625 679.6875 C2622.91968897 680.71542275 2622.91968897 680.71542275 2619 683 C2617.33382885 683.04063832 2615.66611905 683.042721 2614 683 C2614.05534912 682.19071045 2614.11069824 681.3814209 2614.16772461 680.54760742 C2614.33249774 678.13019184 2614.49622391 675.71270478 2614.65917969 673.29516602 C2614.84447372 670.54665167 2615.03456158 667.79852195 2615.22753906 665.05053711 C2615.64329081 659.04259236 2616.04067733 653.0469651 2616.14453125 647.0234375 C2616.16459229 646.16983643 2616.18465332 645.31623535 2616.20532227 644.43676758 C2616.23408562 642.90822327 2616.24026915 641.37900179 2616.21850586 639.8503418 C2616.33550099 634.7225606 2617.93685859 631.943651 2621.36474609 628.35522461 C2623.57748296 626.5214082 2625.3415881 626.01473599 2628.1875 625.75 C2631.63406774 625.42387208 2631.63406774 625.42387208 2634.61929798 623.84344006 C2636.59303025 621.20821748 2636.36907647 619.29310566 2636.36076355 616.02058411 C2636.36488754 614.77116531 2636.36901154 613.52174652 2636.3732605 612.23446655 C2636.36264306 610.84747099 2636.35173863 609.46047761 2636.34057617 608.07348633 C2636.33973008 606.61493446 2636.3402047 605.15638132 2636.34190369 603.6978302 C2636.34276576 599.73521276 2636.32510583 595.77286677 2636.30418181 591.81031251 C2636.2854503 587.67032379 2636.28366736 583.53032912 2636.28010559 579.39030457 C2636.27077474 571.54924918 2636.24614693 563.70831901 2636.21605712 555.86731881 C2636.18254543 546.94119731 2636.16603524 538.01506989 2636.15097082 529.08890116 C2636.11959825 510.72586307 2636.06681758 492.3629416 2636 474 C2635.02007835 473.99576806 2634.04015671 473.99153612 2633.03054047 473.98717594 C2609.13259052 473.88375616 2585.23466946 473.77497983 2561.3367691 473.66066074 C2549.77969833 473.60549846 2538.22262447 473.55204542 2526.66552734 473.50268555 C2516.5865923 473.45963443 2506.50767841 473.41330561 2496.42877626 473.36312145 C2491.09735585 473.33668794 2485.76593917 473.31184105 2480.43449402 473.29092598 C2475.4047046 473.27114234 2470.37495484 473.24693855 2465.34520149 473.21950912 C2463.51038913 473.21025228 2461.67556815 473.20253786 2459.84074211 473.19658089 C2449.96395199 473.16355909 2440.15710229 472.92944923 2430.30342674 472.23003292 C2426.12166622 471.93883755 2421.94796225 471.80093251 2417.7578125 471.71875 C2416.59063187 471.69113586 2416.59063187 471.69113586 2415.39987183 471.66296387 C2412.97497051 471.60570786 2410.55001235 471.55232432 2408.125 471.5 C2395.73104083 471.23138472 2383.37406692 470.76239204 2371 470 C2370.93024754 478.71062191 2370.87706131 487.4211465 2370.84456348 496.13198757 C2370.82895995 500.17752949 2370.80781987 504.22287921 2370.77368164 508.26831055 C2370.74089719 512.17813549 2370.72310711 516.08777647 2370.71536827 519.99772835 C2370.70985879 521.48355057 2370.69910073 522.96936361 2370.68280983 524.45510674 C2370.35771281 536.11425239 2370.35771281 536.11425239 2374 547 C2375.93796627 549.08164369 2375.93796627 549.08164369 2378.41015625 550.203125 C2379.29977051 550.67169922 2380.18938477 551.14027344 2381.10595703 551.62304688 C2382.06099121 552.07744141 2383.01602539 552.53183594 2384 553 C2384.97179199 553.46986328 2385.94358398 553.93972656 2386.94482422 554.42382812 C2390.09267514 555.90481416 2393.26107578 557.33142115 2396.4375 558.75 C2411.91898668 565.79123228 2427.16415684 573.01618135 2441 583 C2441.969375 583.69609375 2442.93875 584.3921875 2443.9375 585.109375 C2474.16763157 607.30962787 2500.82855726 635.94131927 2508.25 674 C2509.79990945 681.49389207 2511.82099993 688.82917674 2513.93066406 696.18359375 C2516.39348092 704.92769448 2517.16560933 713.1113146 2517.125 722.1875 C2517.13080078 723.50137695 2517.13080078 723.50137695 2517.13671875 724.84179688 C2517.13542969 725.69193359 2517.13414062 726.54207031 2517.1328125 727.41796875 C2517.13168457 728.17875732 2517.13055664 728.9395459 2517.12939453 729.72338867 C2517 732 2517 732 2516.50276184 734.33758545 C2516.01636556 736.91333489 2515.85665641 739.25816123 2515.82641602 741.87524414 C2515.81292618 742.81715103 2515.79943634 743.75905792 2515.78553772 744.72950745 C2515.76988014 746.2420536 2515.76988014 746.2420536 2515.75390625 747.78515625 C2515.72094705 749.94726936 2515.68773578 752.10937863 2515.65429688 754.27148438 C2515.60709422 757.6590697 2515.56268486 761.04664188 2515.52319336 764.43432617 C2515.48307406 767.71810271 2515.43161181 771.00156078 2515.37890625 774.28515625 C2515.36628502 775.77644798 2515.36628502 775.77644798 2515.35340881 777.29786682 C2515.2316132 784.35276271 2514.3180177 791.07384167 2513 798 C2512.7764962 799.22590599 2512.7764962 799.22590599 2512.54847717 800.47657776 C2509.24367579 818.35579574 2502.28302806 835.18042709 2495.74591064 852.06427002 C2494.68915524 854.80668042 2493.65606605 857.55790168 2492.62109375 860.30859375 C2484.16979156 882.48950609 2468.91519901 899.26557412 2453.10546875 916.6015625 C2450.1216576 920.00056073 2447.36845247 923.56667858 2444.62890625 927.1640625 C2444.09136719 927.76992187 2443.55382813 928.37578125 2443 929 C2442.34 929 2441.68 929 2441 929 C2440.7743335 929.55018799 2440.54866699 930.10037598 2440.31616211 930.66723633 C2438.59714686 933.71401627 2436.41241621 935.84718246 2433.94140625 938.32421875 C2433.43761948 938.82991898 2432.9338327 939.3356192 2432.41477966 939.85664368 C2431.34546588 940.92731656 2430.27362978 941.99547544 2429.19946289 943.0612793 C2427.59228282 944.65791263 2425.99585142 946.26471347 2424.40039062 947.87304688 C2417.92023979 954.36155352 2411.18073182 960.28322231 2404 966 C2402.89816738 966.93477427 2401.80184023 967.87613933 2400.71484375 968.828125 C2383.06853023 984.21590894 2363.95490742 995.7382089 2343.01757812 1006.00732422 C2340.27015935 1007.35909149 2337.53205568 1008.7291113 2334.79492188 1010.1015625 C2333.44361509 1010.77786121 2332.09077095 1011.45109778 2330.73632812 1012.12109375 C2327.65531128 1013.64786127 2324.62127477 1015.20899699 2321.609375 1016.87109375 C2313.14231991 1021.47691643 2313.14231991 1021.47691643 2308.75 1021.1875 C2301.20681772 1018.79882561 2295.35148966 1013.87337029 2289.5 1008.6875 C2288.84636475 1008.11499512 2288.19272949 1007.54249023 2287.51928711 1006.95263672 C2283.44601635 1003.35866379 2279.53047616 999.65659608 2275.75 995.75390625 C2273.92548524 993.92531891 2272.02321312 992.24365832 2270.0625 990.5625 C2267.07198284 987.99334729 2264.26883316 985.30682744 2261.5 982.5 C2258.86537109 979.83411278 2256.21755931 977.25513213 2253.375 974.8125 C2245.1979628 967.78057057 2237.44385449 960.25145106 2229.6015625 952.8515625 C2228.50557739 951.81769409 2228.50557739 951.81769409 2227.38745117 950.76293945 C2225.9288697 949.38691003 2224.47069443 948.0104499 2223.01293945 946.63354492 C2219.14243934 942.98600711 2215.23439559 939.39760828 2211.25 935.875 C2201.34269994 926.99724901 2201.34269994 926.99724901 2201 921 C2202.72651849 919.27348151 2205.14328372 919.70830694 2207.5 919.5625 C2212.85478563 919.15301639 2217.79739295 918.26572115 2223 917 C2225.31112361 916.4936761 2227.6237532 915.99419835 2229.9375 915.5 C2231.59072266 915.14421875 2231.59072266 915.14421875 2233.27734375 914.78125 C2235.18613587 914.38066404 2237.09576308 913.98230566 2239.01367188 913.62792969 C2247.13990381 912.10294656 2255.1165917 910.00024133 2263.11083984 907.90625 C2265.59659006 907.25741561 2268.0852609 906.62077586 2270.57421875 905.984375 C2284.91491021 902.26683015 2298.50360443 897.40485882 2311.9375 891.125 C2313.41536987 890.43833252 2313.41536987 890.43833252 2314.9230957 889.73779297 C2318.28629041 888.16739158 2321.64310602 886.5838219 2325 885 C2326.32210632 884.38116996 2327.64437796 883.76269301 2328.96679688 883.14453125 C2352.98909345 871.89666341 2375.27712288 859.73478278 2396 843 C2396.55526367 842.56042969 2397.11052734 842.12085937 2397.68261719 841.66796875 C2411.33307 830.8414586 2424.3528704 818.28518478 2435.0390625 804.515625 C2437.24154851 801.69012502 2439.58776779 799.01649952 2441.9375 796.3125 C2454.97448562 780.64382474 2463.73339072 762.62020375 2469 743 C2469.29471191 741.95376465 2469.58942383 740.9075293 2469.89306641 739.82958984 C2474.23038925 724.15891006 2476.67015585 709.28970653 2476.625 693 C2476.62585602 692.24625092 2476.62671204 691.49250183 2476.62759399 690.71591187 C2476.56742019 672.17247693 2468.47131475 660.95027219 2456 648 C2455.13955078 647.02740234 2455.13955078 647.02740234 2454.26171875 646.03515625 C2440.51277315 630.93618499 2417.92423374 621.88967738 2398.44873047 617.55859375 C2395.23894953 616.82639248 2392.04449323 616.03676179 2388.84765625 615.25 C2383.7014179 613.98695004 2378.55422901 612.7281441 2373.40234375 611.48828125 C2372.31429443 611.22571533 2371.22624512 610.96314941 2370.10522461 610.69262695 C2351.28631624 606.49502942 2330.49891541 607.83939139 2312 613 C2311.17258301 613.23025879 2310.34516602 613.46051758 2309.49267578 613.69775391 C2299.96557725 616.4163958 2290.90313065 619.63594907 2282 624 C2280.56005752 624.65686414 2279.11849655 625.31018607 2277.67578125 625.9609375 C2252.12657811 637.58535547 2229.93180177 654.19594123 2209.61425781 673.46923828 C2208.56270034 674.46640485 2207.50752664 675.4597761 2206.44824219 676.44873047 C2197.83968449 684.51198724 2190.78022641 693.36384602 2184 703 C2183.53787109 703.65468262 2183.07574219 704.30936523 2182.59960938 704.98388672 C2177.68053248 712.00887743 2173.23525219 719.03353905 2169.55078125 726.796875 C2168.04397624 729.90916747 2166.43334981 732.9395885 2164.78637695 735.97875977 C2160.7516839 743.43492681 2157.11869649 750.98485581 2153.7409668 758.76025391 C2152.08308837 762.57599923 2150.37722251 766.31642273 2148.4375 770 C2144.99375863 776.70196132 2142.51095365 783.83803479 2139.82128906 790.86572266 C2130.72640255 814.50053177 2130.72640255 814.50053177 2125 818 C2111.48352895 818.21454716 2097.98338312 809.78485047 2086.015625 804.23828125 C2080.91307462 801.87514232 2075.79708967 799.54400336 2070.671875 797.23046875 C2069.22102796 796.57470855 2067.77018161 795.91894682 2066.31933594 795.26318359 C2064.19379671 794.30268015 2062.06789894 793.34302856 2059.94055176 792.38653564 C2020.51891143 774.65526424 2020.51891143 774.65526424 2015 767 C2013.45007104 760.65477394 2014.20501614 754.72976388 2015.5625 748.4375 C2015.74304932 747.57125 2015.92359863 746.705 2016.10961914 745.8125 C2017.9350124 737.52176013 2020.7448878 729.82083537 2024 722 C2024.36609375 721.06027344 2024.7321875 720.12054687 2025.109375 719.15234375 C2030.98122844 704.366336 2038.25033684 690.01539768 2045.78930664 676.01660156 C2048.35769004 671.2460041 2050.79574404 666.4237926 2053.1875 661.5625 C2056.1723384 655.51655214 2059.41794674 649.71649208 2063 644 C2064.00276143 642.33499331 2065.00344032 640.66872603 2066 639 C2065.06542969 638.86464844 2064.13085938 638.72929687 2063.16796875 638.58984375 C2054.23538816 637.16906565 2046.0695981 634.82335822 2037.64916992 631.51342773 C2026.55671302 627.16099296 2016.01228605 625.84741656 2004.12890625 625.83203125 C2003.20770493 625.82870285 2002.2865036 625.82537445 2001.33738708 625.82194519 C1999.39525852 625.81691061 1997.45312141 625.81453578 1995.51098633 625.81469727 C1992.60157222 625.81252912 1989.69254947 625.79438661 1986.78320312 625.77539062 C1947.4447671 625.65566249 1914.91144653 637.57854253 1884 662 C1883.46246094 662.4218457 1882.92492188 662.84369141 1882.37109375 663.27832031 C1867.69657896 674.91517448 1854.04290224 688.12813047 1844 704 C1843.35417969 704.98871094 1842.70835938 705.97742187 1842.04296875 706.99609375 C1832.25725082 722.9601672 1825.46429423 741.14949662 1819.25 758.75 C1818.91484375 759.65153809 1818.5796875 760.55307617 1818.234375 761.48193359 C1813.75744659 774.77040266 1815.75951226 787.71503153 1819.4375 800.9375 C1819.79973042 802.28191475 1820.16170478 803.62639852 1820.5234375 804.97094727 C1825.53157146 823.2924185 1831.58819139 841.43538203 1841 858 C1841.40976074 858.7223584 1841.81952148 859.4447168 1842.24169922 860.18896484 C1848.35116662 870.81993649 1855.12060915 880.61397657 1863 890 C1863.4861377 890.58233398 1863.97227539 891.16466797 1864.47314453 891.76464844 C1870.64176237 899.12842343 1877.02066902 906.28072483 1883.546875 913.328125 C1885.59687517 915.56092773 1887.59174579 917.82271705 1889.5625 920.125 C1892.96654239 924.05964851 1896.64877781 927.68433629 1900.375 931.3125 C1902.37647026 933.36162431 1904.23863414 935.41815146 1906.09765625 937.58984375 C1910.47327337 942.63535519 1915.18586106 947.33604923 1919.9152832 952.0456543 C1921.43491668 953.5599258 1922.94912517 955.0794743 1924.46289062 956.59960938 C1931.87878375 964.02171391 1939.5349478 970.98545649 1947.8125 977.4375 C1948.41288086 977.90776611 1949.01326172 978.37803223 1949.63183594 978.86254883 C1954.14514126 982.37921578 1958.75137348 985.75190839 1963.3984375 989.08984375 C1967.70967911 992.25530493 1971.84938885 995.62851381 1976 999 C1977.27810547 999.97453125 1977.27810547 999.97453125 1978.58203125 1000.96875 C1984.94183458 1006.31139577 1988.70527039 1014.01946537 1992.4375 1021.3125 C1992.96887573 1022.3348877 1992.96887573 1022.3348877 1993.51098633 1023.37792969 C1995.3331345 1027.05022435 1996.45439277 1029.87857782 1996 1034 C1992.70579758 1033.29403078 1989.82548256 1032.11845611 1986.7578125 1030.734375 C1985.1807251 1030.02716309 1985.1807251 1030.02716309 1983.57177734 1029.30566406 C1982.43434082 1028.79229492 1981.2969043 1028.27892578 1980.125 1027.75 C1977.68286564 1026.65494098 1975.24034178 1025.56082561 1972.796875 1024.46875 C1972.16312958 1024.18533752 1971.52938416 1023.90192505 1970.87643433 1023.60992432 C1964.37750157 1020.71020121 1957.84294898 1017.89477016 1951.30609131 1015.08187866 C1918.35143391 1000.88561762 1886.81809589 984.16132976 1856.90429688 964.26611328 C1855.05025596 963.03341377 1853.19001363 961.81064801 1851.328125 960.58984375 C1827.45308129 944.8760036 1804.4183366 928.29174344 1783.26171875 909.04296875 C1781.20128359 907.18181575 1779.10885682 905.36828758 1777 903.5625 C1769.41315142 896.94125033 1762.51024326 889.669417 1756 882 C1755.20207031 881.09121094 1754.40414062 880.18242187 1753.58203125 879.24609375 C1738.06339141 861.44891213 1725.78660708 841.92209705 1715.0168457 820.97705078 C1714.33875348 819.65863762 1713.65236066 818.34446084 1712.95776367 817.03466797 C1710.42090457 812.15854886 1708.57202528 807.24281695 1706.9375 802 C1706.69451172 801.26394531 1706.45152344 800.52789063 1706.20117188 799.76953125 C1701.98179901 786.4063185 1700.53853943 773.49299563 1700.71875 759.54638672 C1700.74988864 757.13362845 1700.75974814 754.72153351 1700.765625 752.30859375 C1700.91373523 721.57854978 1702.32199466 688.68838852 1719.59375 662.18359375 C1721.09489408 659.85265058 1722.35135751 657.46212866 1723.625 655 C1745.38029429 614.84074918 1779.7348604 583.04115759 1820.6875 563.1875 C1821.65002686 562.71876465 1822.61255371 562.2500293 1823.60424805 561.76708984 C1828.87094774 559.26955423 1834.0117206 557.29186413 1839.62695312 555.73950195 C1841.97617161 555.00742554 1844.059811 554.07619869 1846.26953125 553 C1852.14701559 550.28632279 1858.36758374 549.2413518 1864.6875 548 C1875.46879482 545.84336362 1875.46879482 545.84336362 1886 542.75 C1904.87034456 537.21346859 1926.4578957 538.82356733 1945.9375 538.8125 C1946.98170105 538.81141235 1948.0259021 538.81032471 1949.10174561 538.8092041 C1979.21017964 538.81275316 1979.21017964 538.81275316 1993.4375 542.8125 C1994.44264648 543.08674805 1995.44779297 543.36099609 1996.48339844 543.64355469 C1998.45955303 544.18459153 2000.43439988 544.73043447 2002.40771484 545.28173828 C2004.48025021 545.85598946 2006.56117925 546.39991623 2008.64453125 546.93359375 C2038.17518885 554.69699933 2064.27010012 568.881625 2090.31591797 584.40258789 C2092.11753702 585.4748085 2093.92394974 586.53901192 2095.73486328 587.59545898 C2101.14864743 590.77664628 2105.86160538 594.2086289 2110.578125 598.36328125 C2113.4838337 600.32697794 2115.51284472 600.79004039 2119 601 C2124.83814491 599.73040342 2130.08526161 596.42867956 2135.1875 593.4375 C2156.33329431 581.07382021 2179.37212882 572.23204717 2202 563 C2203.10263184 562.54898926 2204.20526367 562.09797852 2205.34130859 561.63330078 C2210.22307717 559.64092541 2215.11332894 557.67488225 2220.02880859 555.76708984 C2221.92584816 555.02885621 2223.81659384 554.274511 2225.70703125 553.51953125 C2237.3361674 549.0688742 2249.40152783 547.02847069 2261.80078125 546.2109375 C2264.32682048 546.02369613 2264.32682048 546.02369613 2268 545 C2268 521.57 2268 498.14 2268 474 C2258.10580078 473.80083984 2258.10580078 473.80083984 2248.01171875 473.59765625 C2243.75064768 473.51122681 2239.48957872 473.42471004 2235.22851562 473.33789062 C2228.51344411 473.20107859 2221.79836818 473.06453336 2215.08325195 472.92993164 C2208.60104148 472.79992405 2202.11887014 472.66807494 2195.63671875 472.53515625 C2194.0307464 472.50241356 2194.0307464 472.50241356 2192.39233017 472.4690094 C2179.9209508 472.21315604 2167.4535334 471.90744759 2154.98597145 471.50792885 C2136.7357903 470.92744394 2118.49431802 470.84558818 2100.23583984 470.86962891 C2095.85205038 470.87536136 2091.46832117 470.8719064 2087.08453369 470.86619186 C2053.26439018 470.74029164 2053.26439018 470.74029164 2019.52581787 472.78353882 C2012.91159276 473.35037422 2006.25899193 473.24168763 1999.625 473.25 C1998.74214325 473.25233643 1997.8592865 473.25467285 1996.94967651 473.25708008 C1985.85918138 473.26777873 1974.81635154 473.00835621 1963.74609375 472.328125 C1962.66679092 472.26246338 1961.5874881 472.19680176 1960.47547913 472.12915039 C1959.36200607 472.06139404 1958.24853302 471.9936377 1957.10131836 471.92382812 C1923.08605948 469.86238776 1889.13434714 469.7188395 1855.0625 469.75 C1852.47413127 469.75107494 1849.88576254 469.75213299 1847.2973938 469.75317383 C1841.09012137 469.75715697 1834.88290625 469.76869254 1828.67565918 469.78679657 C1826.36217566 469.79342899 1824.04868832 469.79885819 1821.73519897 469.80298615 C1818.51881797 469.80988398 1815.30253145 469.82338241 1812.08618164 469.83886719 C1811.16623445 469.83997749 1810.24628725 469.8410878 1809.29846287 469.84223175 C1803.07378282 469.88221366 1796.91647987 470.27765167 1790.71065617 470.74860001 C1784.17092432 471.19167219 1777.62321326 471.36856854 1771.07202148 471.54492188 C1770.32618266 471.56572028 1769.58034384 471.58651869 1768.81190383 471.60794735 C1751.04084879 472.09654088 1733.27015377 472.20183791 1715.49337316 472.27039146 C1710.92650854 472.28913476 1706.35967259 472.31334582 1701.79283142 472.33703613 C1691.18742666 472.39125025 1680.58199988 472.43964081 1669.9765625 472.48697662 C1653.80856775 472.55923378 1637.64059636 472.6351053 1621.47265625 472.71875 C1620.08525942 472.72582336 1620.08525942 472.72582336 1618.66983438 472.73303962 C1592.11966156 472.86918694 1565.5796039 473.16221406 1539.03353882 473.65400696 C1518.32827597 474.03528622 1497.62793193 474.19866447 1476.91926956 474.18867874 C1474.10380185 474.18746388 1471.28833772 474.1880457 1468.47286987 474.18869019 C1433.01166073 474.18695601 1397.45348797 473.93807627 1362.04756802 471.75646216 C1349.06348517 470.96115954 1336.11890287 470.86167493 1323.11372375 470.87974548 C1320.75031418 470.87930854 1318.38690465 470.87843136 1316.02349538 470.87715632 C1310.25146709 470.87516738 1304.47945414 470.8777747 1298.70742767 470.88239699 C1291.78369993 470.88767269 1284.85997573 470.88704953 1277.93624647 470.88625254 C1265.16237835 470.88494384 1252.38851543 470.88826017 1239.61464882 470.89426994 C1226.97835578 470.90019967 1214.34206491 470.90403845 1201.70577049 470.90512276 C1200.91824523 470.9051915 1200.13071996 470.90526024 1199.3193303 470.90533106 C1195.31941496 470.90566942 1191.31949962 470.90597079 1187.31958427 470.90625793 C1159.03426239 470.90835485 1130.74894334 470.91508243 1102.46362305 470.92456055 C1074.99552424 470.93375415 1047.52742621 470.94083327 1020.05932617 470.94506836 C1018.78789795 470.94526565 1018.78789795 470.94526565 1017.4907843 470.94546692 C1008.97816253 470.94678551 1000.46554075 470.94806132 991.95291896 470.94930578 C974.61381015 470.95184157 957.27470139 470.95466282 939.93559265 470.95765686 C939.13847796 470.95779415 938.34136328 470.95793144 937.5200936 470.95807289 C884.34672788 470.96726384 831.17336377 470.98312878 778 471 C776.50771945 473.98456109 776.86133245 477.03559285 776.87060547 480.30786133 C776.86885315 481.06090042 776.86710083 481.81393951 776.86529541 482.58979797 C776.86088287 485.0872323 776.86381367 487.58459616 776.8671875 490.08203125 C776.86651408 491.81597406 776.86554373 493.54991677 776.86428833 495.28385925 C776.86281199 498.92305396 776.86496308 502.56222416 776.86962891 506.20141602 C776.87531343 510.86201598 776.8720549 515.52255819 776.86605644 520.18315601 C776.86243824 523.76653984 776.86359544 527.34991005 776.86618423 530.9332943 C776.86685068 532.65126235 776.86603495 534.36923165 776.86370468 536.08719826 C776.86115894 538.49281702 776.86504643 540.89834319 776.87060547 543.30395508 C776.86858124 544.01219421 776.86655701 544.72043335 776.86447144 545.45013428 C776.88002607 549.09239101 777.13691522 552.45757214 778 556 C783.97320488 555.50375117 789.45725695 554.48032166 795.1875 552.75 C802.16014638 550.7238432 809.15976699 549.00134302 816.25 547.4375 C822.37499132 546.08469597 828.4240428 544.66204999 834.4375 542.875 C847.15903593 539.11652538 859.76511525 537.43220518 872.9375 536.4375 C874.49216117 536.31474148 876.04676679 536.19127742 877.60131836 536.06713867 C879.92644879 535.88169325 882.25161239 535.6970101 884.57710266 535.51612854 C888.86185446 535.18112671 893.13814907 534.8035052 897.4140625 534.3671875 C937.31997612 530.35724247 978.90384409 532.76507757 1017 546 C1017.64888184 546.21881836 1018.29776367 546.43763672 1018.96630859 546.66308594 C1049.87878824 557.15247204 1076.47918961 576.96349903 1091.34375 606.53515625 C1098.45129085 621.23998017 1098.45129085 621.23998017 1099.75 629.125 C1100.8278642 634.25354743 1103.12444811 638.59520694 1105.5625 643.203125 C1108.49054827 648.90008848 1109.34643616 653.33427684 1109.5625 659.66796875 C1109.59931885 660.50282303 1109.6361377 661.33767731 1109.67407227 662.1978302 C1109.7910983 664.86077803 1109.89680588 667.52398266 1110 670.1875 C1110.06410412 686.61422471 1110.06410412 686.61422471 1114.02469444 702.34441566 C1115.46676053 707.74948505 1115.24777786 712.99633297 1115.20254517 718.56625366 C1115.20017046 719.84544855 1115.19779576 721.12464343 1115.1953491 722.4426018 C1115.18850008 725.9864122 1115.16907865 729.53005879 1115.14758825 733.07380652 C1115.12660622 736.89784415 1115.11730637 740.72191233 1115.10658264 744.54598999 C1115.08641283 751.16920068 1115.05885311 757.79234749 1115.02626419 764.41550827 C1114.9791569 773.99146386 1114.94321003 783.56743581 1114.90998094 793.14344843 C1114.85576526 808.68014128 1114.79253246 824.21678381 1114.72363281 839.75341797 C1114.65672524 854.84519858 1114.59406206 869.93698699 1114.53710938 885.02880859 C1114.53359693 885.95917487 1114.53008449 886.88954115 1114.52646561 887.84810035 C1114.50887079 892.51550651 1114.49135944 897.18291299 1114.47388959 901.85031962 C1114.32886741 940.56693622 1114.16921289 979.28348201 1114 1018 C1112.56584761 1017.52968376 1111.13235561 1017.05735344 1109.69914246 1016.58418274 C1108.90079577 1016.32137166 1108.10244909 1016.05856058 1107.27991009 1015.78778553 C1104.40504732 1014.79442386 1101.67675474 1013.58857052 1098.92578125 1012.29296875 C1097.85312012 1011.79168457 1096.78045898 1011.29040039 1095.67529297 1010.77392578 C1094.56557129 1010.25040527 1093.45584961 1009.72688477 1092.3125 1009.1875 C1089.9888647 1008.10421637 1087.66465131 1007.02217182 1085.33984375 1005.94140625 C1084.23753418 1005.42852051 1083.13522461 1004.91563477 1081.99951172 1004.38720703 C1073.93299593 1000.65662404 1065.77846581 997.25804702 1057.4375 994.1875 C1050.82487248 991.7494072 1044.30581614 989.11490233 1037.8125 986.375 C1036.91523193 986.00270264 1036.01796387 985.63040527 1035.09350586 985.24682617 C1023.6834808 980.37784175 1023.6834808 980.37784175 1020.9375 974.375 C1020.62167969 973.69179687 1020.30585937 973.00859375 1019.98046875 972.3046875 C1018.24745023 968.23105832 1016.59142384 964.13092997 1015 960 C1009.18377975 958.64860608 1005.7701855 959.50145979 1000.6875 962.3125 C999.9972876 962.67424316 999.3070752 963.03598633 998.59594727 963.40869141 C994.94583404 965.33929593 991.35052837 967.3615216 987.765625 969.41015625 C974.59116284 976.92515581 960.95731142 983.34994562 946.71484375 988.60546875 C943.28772427 989.89198994 940.01045136 991.34387671 936.6875 992.875 C911.40065322 1003.88739957 880.96689463 1007.48982461 853.65771484 1008.7980957 C851.6377166 1008.95155322 849.62520784 1009.2074708 847.62207031 1009.50976562 C843.98359158 1010.00222082 840.50594139 1010.14528429 836.8359375 1010.16796875 C836.1702475 1010.17220352 835.5045575 1010.17643829 834.81869507 1010.18080139 C832.67073172 1010.19064527 830.52298186 1010.19072645 828.375 1010.1875 C827.6380188 1010.18689575 826.9010376 1010.1862915 826.14172363 1010.18566895 C803.05689738 1010.13432202 780.50001955 1007.74461553 758.3359375 1000.9765625 C754.85135519 999.95648571 751.35488012 999.16962195 747.8125 998.375 C721.40878507 992.05293713 696.54203187 980.41013508 675 964 C674.06929687 963.30132813 673.13859375 962.60265625 672.1796875 961.8828125 C669.72691856 959.98211374 667.35491634 958.02064592 665 956 C664.50580566 955.5781543 664.01161133 955.15630859 663.50244141 954.72167969 C654.87265173 947.28428427 647.61398171 939.27224486 641 930 C640.37303223 929.12142334 640.37303223 929.12142334 639.73339844 928.22509766 C634.1522788 920.27496618 630.08342844 912.25028532 627 903 C626.71640625 902.21109375 626.4328125 901.4221875 626.140625 900.609375 C625.36891076 898.42022643 624.6801846 896.21927691 624 894 C623.74492676 893.20247314 623.48985352 892.40494629 623.22705078 891.58325195 C620.78359453 883.08151986 620.4741172 874.94141637 620.49902344 866.16552734 C620.49999326 863.76667078 620.45828615 861.37105204 620.4140625 858.97265625 C620.33167903 848.14489588 622.16442994 839.10456123 626 829 C626.55228271 827.52841431 626.55228271 827.52841431 627.11572266 826.02709961 C636.6036546 801.95495871 657.52197495 781.29041959 675.46484375 763.34985352 C677.37009504 761.4424106 679.26717613 759.52708533 681.1640625 757.61132812 C688.13123568 750.6120868 695.18280811 744.0546884 703 738 C704.02351563 737.18789062 705.04703125 736.37578125 706.1015625 735.5390625 C724.52316093 721.56602344 744.40441895 710.34041055 766 702 C767.21945312 701.50757812 768.43890625 701.01515625 769.6953125 700.5078125 C798.41885354 688.92679481 824.99158322 681.90100537 856 679 C857.16982422 678.88760986 857.16982422 678.88760986 858.36328125 678.77294922 C862.90533439 678.35301087 867.44162483 678.12116843 872 678 C872.9998291 677.97276855 873.9996582 677.94553711 875.02978516 677.91748047 C896.51610878 677.42627623 917.94720127 678.40688479 939 683 C940.39230835 683.29318115 940.39230835 683.29318115 941.81274414 683.59228516 C956.30080467 686.69201185 969.61687368 690.65943678 983 697 C984.02254883 697.47840332 985.04509766 697.95680664 986.09863281 698.44970703 C1007.01740865 708.25596086 1007.01740865 708.25596086 1015.05810547 713.1105957 C1017.25013733 714.27760711 1017.25013733 714.27760711 1021 714 C1021.0997145 708.91379356 1021.17186281 703.82817008 1021.21972656 698.74121094 C1021.23970285 697.01487298 1021.26689372 695.28860147 1021.30175781 693.5625 C1021.58641961 679.09498289 1020.13124049 669.04098453 1010 658 C1008.08358248 656.1618036 1006.12120051 654.43434584 1004.078125 652.73828125 C1002.67873596 651.56773966 1001.31373913 650.35496798 999.984375 649.10546875 C987.13201841 637.03853395 972.00132605 629.32457311 955 625 C953.90171875 624.70996094 952.8034375 624.41992188 951.671875 624.12109375 C937.26217573 620.51866893 922.63267779 620.78604373 907.86547852 620.75976562 C904.60080963 620.75011327 901.3367862 620.71902936 898.07226562 620.6875 C876.3584466 620.57356658 855.7577424 624.02879834 834.49682617 628.16918945 C831.20197332 628.80968648 827.90490929 629.43767824 824.60742188 630.06445312 C813.53827284 632.18875222 802.52115884 634.48526653 791.55078125 637.07421875 C790.55177292 637.30671829 789.55276459 637.53921783 788.52348328 637.77876282 C782.66034495 639.19441356 777.05136396 640.95859097 771.41329956 643.10350037 C767.93295553 644.39638883 764.38787312 645.38459315 760.8125 646.375 C746.29529702 650.53920048 732.38930268 656.38874468 718.39892578 662.03491211 C716.78932637 662.68245398 715.17829843 663.32645536 713.56591797 663.96704102 C709.18734781 665.70662108 704.82988628 667.48485813 700.4921875 669.32421875 C699.56792969 669.71287109 698.64367188 670.10152344 697.69140625 670.50195312 C695.80296154 671.29688096 693.91755283 672.09905741 692.03515625 672.90820312 C686.60258401 675.17620706 681.88162598 676.59174596 676 677 C675.77866958 664.93238465 675.87577866 652.91735262 676.75 640.875 C676.81171387 639.86308594 676.87342773 638.85117188 676.93701172 637.80859375 C677.05326904 636.38353516 677.05326904 636.38353516 677.171875 634.9296875 C677.2347168 634.09679199 677.29755859 633.26389648 677.36230469 632.40576172 C678.23331338 629.11980471 679.66471128 627.47165944 682 625 C684.21325849 624.09313842 686.43621548 623.20973285 688.66625977 622.3449707 C691.35486215 620.93417285 693.24407446 619.49545977 695 617 C697.55546243 608.58778228 696.55263483 599.15640791 696.33984375 590.48046875 C696.32063552 587.8211787 696.306393 585.1623071 696.29847717 582.50300598 C696.27182392 576.91943719 696.19811243 571.33818961 696.09057617 565.75561523 C695.9408764 557.98183293 695.87363539 550.2090679 695.82465923 542.43408811 C695.65616787 517.54690999 695.11298584 492.80985897 693 468 C680.79905347 467.20814936 668.6599915 466.84849781 656.43502808 466.84178162 C654.63757824 466.83720176 652.84012943 466.83219972 651.04268181 466.82681805 C646.15787251 466.81338942 641.27307005 466.8058636 636.38824725 466.79939139 C631.10016257 466.79131931 625.81209186 466.77764546 620.52401733 466.76467896 C611.38008949 466.74301186 602.23616017 466.72483213 593.09222031 466.70907402 C579.87189185 466.68628578 566.65157891 466.65815579 553.4312637 466.62875474 C531.97810847 466.58118803 510.52494685 466.53789455 489.07177734 466.49731445 C468.24169417 466.45790376 447.41161666 466.41646433 426.58154297 466.37231445 C425.2958899 466.36959018 424.01023684 466.36686591 422.68562458 466.36405908 C416.23537715 466.35037869 409.7851298 466.3366586 403.3348825 466.32291877 C349.88993279 466.20912572 296.44497167 466.10307069 243 466 C243 510.55 243 555.1 243 601 C251.23815973 597.7262906 251.23815973 597.7262906 259.17382812 593.99487305 C260.27617798 593.43716721 261.37852783 592.87946136 262.51428223 592.30485535 C263.67488159 591.71312027 264.83548096 591.12138519 266.03125 590.51171875 C267.27390685 589.88341681 268.51687445 589.25572913 269.76013184 588.62861633 C274.98149291 585.99382116 280.19828652 583.35008683 285.41113281 580.69848633 C302.91593394 571.79983666 320.1908029 563.14899737 339.25 558.03125 C342.10604294 557.24583819 344.92429621 556.41484309 347.75 555.53125 C349.02061279 555.13691772 349.02061279 555.13691772 350.31689453 554.73461914 C351.94492119 554.22731746 353.57113258 553.71412511 355.19482422 553.19311523 C369.40238718 548.80855489 383.21470201 547.50701485 398 547.3125 C399.72885424 547.28164952 401.45769554 547.25006604 403.18652344 547.21777344 C406.58326391 547.15730125 409.97994818 547.10601539 413.37695312 547.06298828 C417.31969513 547.01266013 421.26108433 546.93047193 425.203125 546.83984375 C443.72487051 546.5042944 460.80295202 548.73494714 477.984375 555.83984375 C481.09817042 557.03776763 484.23574163 558.08526731 487.40820312 559.11474609 C509.15578324 566.17500094 527.45751192 576.3468629 545 591 C545.79019531 591.64839844 546.58039062 592.29679687 547.39453125 592.96484375 C552.09400297 596.92749581 556.05298094 601.30078264 560 606 C560.7734375 606.86238281 561.546875 607.72476563 562.34375 608.61328125 C569.21309965 616.44730809 574.40193108 624.65897397 579 634 C579.52932129 635.02480469 579.52932129 635.02480469 580.06933594 636.0703125 C589.11140418 654.07017994 589.00361551 680.25506787 583.6875 699.5 C582.72655616 703.07710194 581.85581128 706.63672992 581.16015625 710.2734375 C575.91499233 737.272564 559.15064817 756.39694913 537.74462891 772.66992188 C536.10590148 773.91926235 534.4801983 775.18563413 532.85546875 776.453125 C523.24829112 783.85682152 513.63029701 789.69039575 502.19921875 793.81640625 C499.16272409 794.93979805 496.25947051 796.22518511 493.3125 797.5625 C483.5578633 801.66564083 472.93792609 803.66443471 462.4375 804.625 C456.44621755 805.44688105 451.84114214 807.9308085 446.6875 810.9375 C445.54655884 811.60289795 445.54655884 811.60289795 444.38256836 812.28173828 C441.5684487 813.97678615 441.5684487 813.97678615 439 816 C439 823.55064923 449.78272121 832.0040858 454.91357422 837.51953125 C457.88601675 840.73096933 460.69888642 844.02537566 463.4375 847.4375 C466.82136938 851.64611173 470.37309378 855.62483467 474.0625 859.5625 C478.29936003 864.08588532 482.26176348 868.72064743 486.078125 873.609375 C488.81929427 877.01912213 491.77806107 880.21504301 494.7265625 883.4453125 C497.00689524 886.00774826 499.16515951 888.63801456 501.3125 891.3125 C505.72721358 896.77097248 510.44748367 901.89077362 515.234375 907.01953125 C517.32910924 909.26598689 519.37329669 911.54473428 521.375 913.875 C524.80936973 917.85074821 528.40748834 921.66786324 532 925.5 C538.70887234 932.67125236 545.20212894 939.88363808 551.25 947.625 C551.67506836 948.16398926 552.10013672 948.70297852 552.53808594 949.25830078 C555.90959387 953.63428741 558.63826047 957.59141763 559.46875 963.12109375 C558.8439692 966.95828916 557.59731536 967.77139761 554.5 970.0625 C553.49324219 970.83078125 552.48648438 971.5990625 551.44921875 972.390625 C550.89411621 972.80634766 550.33901367 973.22207031 549.76708984 973.65039062 C547.22895833 975.58888068 544.77754284 977.62727672 542.31542969 979.66088867 C534.3414826 986.23618756 526.14923717 992.48257382 517.84130859 998.62744141 C516.09679023 999.92785008 514.36794736 1001.24602019 512.64453125 1002.57421875 C496.32154277 1015.09057874 496.32154277 1015.09057874 489.046875 1014.625 C483.12122831 1012.81564223 478.09949086 1007.46881436 474 1003 C474 1002.34 474 1001.68 474 1001 C473.34 1001 472.68 1001 472 1001 C470.60674046 999.44759659 469.28619872 997.82970015 468 996.1875 C464.78254658 992.16052706 461.49961778 988.28942988 458 984.5 C454.63333359 980.84625351 451.4271238 977.12080581 448.3125 973.25 C445.82893671 970.1705555 443.3457756 967.24764541 440.5 964.5 C436.78119858 960.90943311 433.63298785 956.92420893 430.39453125 952.90234375 C427.16860977 948.99229537 423.75597997 945.27184935 420.328125 941.5390625 C417.15556705 938.07905803 414.06687415 934.55367957 411 931 C410.56429688 930.49597656 410.12859375 929.99195312 409.6796875 929.47265625 C404.540592 923.52284782 399.42715601 917.56509039 394.5 911.4375 C390.67050963 906.71307438 386.59747448 902.27389902 382.44360352 897.83789062 C378.52051377 893.62561277 374.88077677 889.23572367 371.27734375 884.74609375 C368.78172444 881.73679636 366.16214146 878.86081559 363.5 876 C359.26918977 871.44761319 355.27724278 866.75385777 351.37890625 861.9140625 C348.64094847 858.56017662 345.82780112 855.27810205 343 852 C338.6803791 846.98709824 334.44901915 841.91461491 330.27734375 836.77734375 C327.25514777 833.09161247 324.16852793 829.46255178 321.08129883 825.83129883 C318.22140505 822.46129684 315.40737018 819.05964744 312.625 815.625 C309.52665079 811.80778919 306.3395483 808.08709038 303.09448242 804.39526367 C285.43104477 784.28407433 285.43104477 784.28407433 285.69189453 774.3515625 C286.21018803 770.39577568 287.94512431 767.40673575 289.9375 764 C290.84790921 762.3596554 291.7551991 760.71757747 292.66015625 759.07421875 C293.17852051 758.1414209 293.69688477 757.20862305 294.23095703 756.24755859 C297.50690374 750.23366911 300.6099936 744.12949426 303.73440552 738.03588867 C304.85699649 735.84759468 305.98257005 733.66086191 307.10913086 731.47460938 C309.07807784 727.65245083 311.04084193 723.82718619 313 720 C313.44746582 719.12625732 313.89493164 718.25251465 314.35595703 717.35229492 C316.24489713 713.62600881 317.70723734 709.97062818 319 706 C321.52183946 702.21724081 322.60221044 702.00300464 327 701 C337.15882314 699.85026833 346.47083441 703.01719114 356.07421875 705.93359375 C372.3688914 710.38534092 389.07935047 708.13519737 405.5 705.625 C406.58879456 705.45883179 406.58879456 705.45883179 407.69958496 705.28930664 C414.30889285 704.26419561 420.64459035 703.14110945 427 701 C428.19625 700.896875 429.3925 700.79375 430.625 700.6875 C436.50761744 700.03884637 441.67284555 697.4479701 447 695 C447.98355469 694.55527344 448.96710938 694.11054688 449.98046875 693.65234375 C468.71141058 684.76937398 483.29877495 671.78573667 491.30078125 652.26953125 C492.43947674 648.57354199 493.01480735 644.8260473 493.56640625 641.00390625 C493.97905207 638.14512577 494.49131665 635.33090141 495.0625 632.5 C495.21847656 631.7265625 495.37445312 630.953125 495.53515625 630.15625 C495.8256555 628.80872405 496.14989637 627.46753231 496.5234375 626.140625 C499.18512716 614.18483864 496.38376424 604.73887772 490.06396484 594.58642578 C483.51238002 584.81767907 469.87111559 580.12061334 458.83789062 577.4831543 C440.5781129 574.37440515 418.30513981 575.44907288 401 582 C400.24025879 582.28407715 399.48051758 582.5681543 398.69775391 582.86083984 C381.96358181 589.31859921 367.32065559 599.35789291 353 610 C352.15477783 610.62672607 352.15477783 610.62672607 351.29248047 611.26611328 C343.84859038 616.81434108 336.80067857 622.67309875 330 629 C328.78052981 630.1165213 327.56043401 631.23235953 326.33984375 632.34765625 C325.05952226 633.5230307 323.77957281 634.69881054 322.5 635.875 C321.58166382 636.71478394 321.58166382 636.71478394 320.64477539 637.5715332 C320.07106201 638.10222412 319.49734863 638.63291504 318.90625 639.1796875 C318.39384766 639.65132324 317.88144531 640.12295898 317.35351562 640.60888672 C315.76038066 642.16154043 315.76038066 642.16154043 314 645 C313.34 645 312.68 645 312 645 C311.76796875 645.55558594 311.5359375 646.11117187 311.296875 646.68359375 C309.65898286 649.60910592 307.58936664 651.65738193 305.25 654.0625 C297.68836987 662.08713885 291.34312444 671.00212022 285 680 C284.47760742 680.74024414 283.95521484 681.48048828 283.41699219 682.24316406 C270.28181864 701.02097165 259.53691193 720.74492773 251 742 C250.10730922 744.16796332 249.212037 746.33486836 248.3125 748.5 C247.79781379 749.78895786 247.79781379 749.78895786 247.27272987 751.10395527 C246 754 246 754 244.48561668 756.52216625 C238.21118775 767.56865726 239.19965261 779.07369891 239.31884766 791.42504883 C239.32054219 793.88998879 239.31958603 796.35493178 239.31619263 798.81987 C239.31483183 804.10463606 239.33170971 809.38884961 239.36561966 814.67347145 C239.41461345 822.3138207 239.43003179 829.95395566 239.43754761 837.59444495 C239.45064337 849.99383126 239.49047452 862.39297924 239.54736328 874.79223633 C239.60253113 886.82900815 239.64495561 898.86571498 239.67041016 910.90258789 C239.6719865 911.64592138 239.67356284 912.38925487 239.67518695 913.15511362 C239.6830178 916.88461278 239.6905999 920.61411239 239.69805837 924.34361231 C239.76014643 955.22924811 239.8661759 986.11458769 240 1017 C236.46819676 1016.32843635 233.32823039 1015.45154912 229.9921875 1014.1015625 C229.01894531 1013.71000977 228.04570313 1013.31845703 227.04296875 1012.91503906 C225.99753906 1012.48932617 224.95210937 1012.06361328 223.875 1011.625 C222.23337891 1010.96322754 222.23337891 1010.96322754 220.55859375 1010.28808594 C214.6787482 1007.91378962 208.8098126 1005.5134827 202.9453125 1003.1015625 C188.83354227 997.30193418 174.79115671 991.65395583 160.18359375 987.2265625 C158.67792847 986.76491699 158.67792847 986.76491699 157.1418457 986.29394531 C155.17178654 985.69385608 153.19774011 985.10666263 151.21948242 984.53417969 C150.32463135 984.26250977 149.42978027 983.99083984 148.5078125 983.7109375 C147.71004395 983.47681152 146.91227539 983.24268555 146.09033203 983.00146484 C143.46415012 981.74327771 142.5560985 980.44701463 141 978 C140.50681049 975.85250634 140.50681049 975.85250634 140.34544086 973.51556683 C140.28099549 972.63220067 140.21655011 971.74883452 140.15015185 970.8386997 C140.10060174 969.9019288 140.05105163 968.9651579 140 968 C139.94927192 967.06613421 139.89854384 966.13226842 139.84627855 965.17010367 C139.6975343 962.03088042 139.5808979 958.8918187 139.47294617 955.75093079 C139.43050659 954.55784864 139.38806702 953.3647665 139.3443414 952.13553035 C139.20712203 948.16517263 139.07766312 944.19461011 138.9519043 940.22387695 C138.92974318 939.5307526 138.90758206 938.83762825 138.8847494 938.12350012 C137.78515906 903.51355151 137.71852007 868.91374208 137.76116182 834.2893915 C137.77190207 825.3185607 137.77148406 816.34773801 137.77100524 807.37690202 C137.77051114 791.33825422 137.77949027 775.29962679 137.79418945 759.26098633 C137.80831338 743.84106069 137.81535751 728.4211529 137.81469727 713.0012207 C137.81465731 712.04767782 137.81461735 711.09413493 137.81457619 710.1116968 C137.81453583 709.15948295 137.81449548 708.2072691 137.8144539 707.22620028 C137.81375809 689.43432053 137.8196813 671.64244806 137.82860712 653.8505707 C137.8311589 648.52348786 137.83254228 643.19640631 137.83293791 637.86932288 C137.83804535 571.74374109 137.83804535 571.74374109 138.44799805 545.63793945 C138.46735023 544.78934368 138.48670242 543.94074792 138.50664103 543.06643713 C138.70775054 534.61922044 139.04637218 526.20974511 139.78956985 517.78912354 C140.1500614 513.01102749 140.12349252 508.23828583 140.09765625 503.44921875 C140.09664917 502.53837524 140.09564209 501.62753174 140.09460449 500.68908691 C140.08945597 497.35521141 140.07549636 494.02135415 140.0625 490.6875 C140.0315625 479.4571875 140.0315625 479.4571875 140 468 C115.91 468 91.82 468 67 468 C65.52074537 462.82260878 64.74914677 459.94414016 64.74121094 454.88452148 C64.73490662 453.72319199 64.72860229 452.56186249 64.72210693 451.36534119 C64.7261554 450.12973953 64.73020386 448.89413788 64.734375 447.62109375 C64.73246155 446.33566177 64.7305481 445.0502298 64.72857666 443.72584534 C64.7256406 441.01517894 64.72987449 438.30464504 64.73925781 435.59399414 C64.75066302 432.13190152 64.74407668 428.67011871 64.73211288 425.20803738 C64.72312142 421.88736509 64.72942826 418.56677481 64.734375 415.24609375 C64.73032654 414.00846786 64.72627808 412.77084198 64.72210693 411.49571228 C64.73156342 409.75844627 64.73156342 409.75844627 64.74121094 407.98608398 C64.74280212 406.97239243 64.74439331 405.95870087 64.74603271 404.91429138 C65.02649777 401.69593634 65.86982772 399.01647463 67 396 C71.22717174 395.20496182 75.25741147 394.85414648 79.55615234 394.79467773 C80.83702728 394.77473251 82.11790222 394.75478729 83.43759155 394.73423767 C84.82037234 394.71725854 86.20315435 394.70037955 87.5859375 394.68359375 C89.01226368 394.66299945 90.43858409 394.64200236 91.86489868 394.62062073 C95.6032034 394.56565556 99.34156085 394.51613457 103.07995605 394.46777344 C106.90100753 394.41737076 110.72198326 394.36178305 114.54296875 394.30664062 C122.02858153 394.19937206 129.51425767 394.09785878 137 394 C137.04689994 385.12272335 137.08215561 376.2454911 137.10362434 367.36811638 C137.11394223 363.24341243 137.12787377 359.11879487 137.15087891 354.99414062 C137.24555337 337.56957955 137.1395746 320.4075517 135.20605469 303.06652832 C134.74581306 298.45075192 134.75109449 293.82141863 134.6875 289.1875 C133.43333983 247.16978097 121.61867558 203.24133289 103.22167969 165.51416016 C101.85502017 162.70163824 100.52438694 159.87343839 99.1953125 157.04296875 C80.47151068 117.33952246 58.52202935 79.99408172 31.30273438 45.49487305 C23.44140764 35.50830934 15.76560222 25.41781095 8.82421875 14.765625 C6.40030724 11.09082981 3.83349209 7.52477257 1.25 3.9609375 C0 2 0 2 0 0 Z " fill="#010102" transform="translate(501,1530)"/>
<path d="M0 0 C2.84979428 0.62826629 5.70455831 1.22783804 8.5612793 1.82373047 C10.41124309 2.21921161 12.26086616 2.6162907 14.11010742 3.01513672 C14.94573715 3.19135559 15.78136688 3.36757446 16.64231873 3.5491333 C21.86773819 4.71641518 26.67468518 6.35871587 31.60011292 8.46038818 C33.88476951 9.37033205 36.13792622 10.02295134 38.52026367 10.62451172 C45.35889263 12.60439647 51.54133989 16.00604292 57.82397461 19.29394531 C59.83280194 20.34192619 61.85093759 21.36955776 63.87182617 22.39404297 C71.73445588 26.42366552 78.91328046 30.93972815 85.89526367 36.37451172 C86.94842773 37.16212891 88.0015918 37.94974609 89.08666992 38.76123047 C113.28150515 57.04417396 140.15720799 82.19228379 144.63012695 113.81884766 C147.61156739 142.55707828 140.92526711 167.4071106 123.20776367 190.24951172 C112.36023338 203.44699055 100.35162748 214.85094515 86.89526367 225.37451172 C84.68623945 227.10279757 82.47787918 228.83192678 80.27026367 230.56201172 C79.68494873 231.0205957 79.09963379 231.47917969 78.49658203 231.95166016 C73.86449459 235.59057923 69.27768221 239.28289747 64.70776367 242.99951172 C64.03269775 243.54833008 63.35763184 244.09714844 62.66210938 244.66259766 C59.68116558 247.09041036 56.70699267 249.52527002 53.75463867 251.98779297 C39.43717915 263.88568182 39.43717915 263.88568182 33.64526367 264.99951172 C28.27659995 263.77936087 25.07015353 259.6089257 21.77026367 255.43701172 C20.99682617 254.47279297 20.22338867 253.50857422 19.42651367 252.51513672 C19.01788086 252.0053125 18.60924805 251.49548828 18.18823242 250.97021484 C9.79593993 240.61295961 0.97378666 230.6092005 -8.05126953 220.80273438 C-12.47135418 215.99342635 -16.77590219 211.09148488 -21.02661133 206.13232422 C-24.73693558 201.861137 -28.52178615 197.97425301 -32.83911133 194.31982422 C-35.65438663 191.90257059 -38.37868669 189.39109401 -41.10473633 186.87451172 C-45.70844378 182.63391155 -50.36318434 178.46061387 -55.10473633 174.37451172 C-54.10473633 171.37451172 -54.10473633 171.37451172 -52.31738281 170.39477539 C-51.54467041 170.11351807 -50.77195801 169.83226074 -49.97583008 169.54248047 C-48.6838269 169.06270752 -48.6838269 169.06270752 -47.36572266 168.57324219 C-46.43397217 168.23953613 -45.50222168 167.90583008 -44.54223633 167.56201172 C-43.582771 167.20510254 -42.62330566 166.84819336 -41.63476562 166.48046875 C-37.46374474 164.93307042 -33.28503787 163.42166636 -29.06567383 162.01123047 C6.26830134 149.79187931 37.18268804 129.8729159 54.35229492 96.54638672 C57.72792787 89.15100712 58.31510475 80.99087148 55.83276367 73.18701172 C49.16155935 58.09067142 33.59477734 46.776111 19.14526367 39.93701172 C18.44868652 39.60709229 17.75210937 39.27717285 17.03442383 38.93725586 C-4.59486836 29.13720343 -29.32986177 35.91638516 -50.66723633 43.62451172 C-65.9097041 49.81318284 -79.0779465 58.42105015 -92.10473633 68.37451172 C-92.74572266 68.86242188 -93.38670898 69.35033203 -94.04711914 69.85302734 C-102.63054286 76.41655494 -110.93852642 83.30051236 -119.10473633 90.37451172 C-120.02512695 91.16986328 -120.94551758 91.96521484 -121.89379883 92.78466797 C-127.07093825 97.34399166 -131.74264353 102.03441001 -136.10473633 107.37451172 C-136.54043945 107.90318848 -136.97614258 108.43186523 -137.42504883 108.9765625 C-164.76209369 142.22506058 -186.1113956 180.59473776 -195.22973633 222.87451172 C-195.46805176 223.97690186 -195.46805176 223.97690186 -195.71118164 225.1015625 C-196.21167214 227.52024867 -196.65992264 229.94494498 -197.10473633 232.37451172 C-197.36069108 233.69864295 -197.36069108 233.69864295 -197.62181664 235.04952431 C-199.66305032 247.10306505 -199.41321246 259.18237386 -199.42358398 271.37207031 C-199.43289478 273.8864219 -199.44306514 276.40077042 -199.45402527 278.91511536 C-199.47559639 284.30330892 -199.49125937 289.69146658 -199.50139236 295.07969284 C-199.51605293 302.86990117 -199.54160978 310.66004468 -199.56972365 318.4502147 C-199.61505853 331.09293186 -199.65172795 343.73565843 -199.68286133 356.37841797 C-199.71310163 368.65089567 -199.74747683 380.92335045 -199.78735352 393.19580078 C-199.78981506 393.95380652 -199.79227661 394.71181227 -199.79481275 395.49278788 C-199.80718842 399.29593739 -199.81964475 403.09908663 -199.83214116 406.90223575 C-199.93550949 438.39296324 -200.02463227 469.88371604 -200.10473633 501.37451172 C-203.08693276 500.19489703 -205.97068071 498.99501784 -208.80004883 497.48388672 C-209.50218506 497.11118652 -210.20432129 496.73848633 -210.92773438 496.35449219 C-212.06722534 495.74565186 -212.06722534 495.74565186 -213.22973633 495.12451172 C-214.92595026 494.22531803 -216.62259079 493.32692877 -218.31958008 492.42919922 C-219.24109863 491.94161133 -220.16261719 491.45402344 -221.11206055 490.95166016 C-231.07828993 485.69942963 -241.08988995 480.53328049 -251.10473633 475.37451172 C-251.90041016 474.96426758 -252.69608398 474.55402344 -253.51586914 474.13134766 C-267.49178324 466.95136011 -281.74083507 459.92777876 -296.54223633 454.62451172 C-302.9860615 452.24603175 -307.29881786 449.08338941 -311.10473633 443.37451172 C-311.55435704 440.89621771 -311.8976726 438.49709559 -312.16073608 435.99832153 C-312.2434565 435.24641293 -312.32617692 434.49450432 -312.41140401 433.71981061 C-313.39284103 424.29835978 -313.83804954 414.85573835 -314.20874023 405.39355469 C-314.2505697 404.35110525 -314.29239916 403.30865581 -314.33549619 402.23461699 C-315.64609409 368.42964541 -315.43457815 334.58575768 -315.43925047 300.76135874 C-315.44025234 295.01513661 -315.44486229 289.26892076 -315.4502449 283.52270126 C-315.46772454 264.47023176 -315.47709959 245.41778434 -315.47558396 226.36530675 C-315.47550404 225.34917935 -315.47542413 224.33305195 -315.4753418 223.28613281 C-315.47526004 222.26874196 -315.47517827 221.25135111 -315.47509404 220.20313023 C-315.47427479 203.58353334 -315.493606 186.96402564 -315.52161853 170.34445466 C-315.55030313 153.1892578 -315.56416271 136.0341047 -315.56243098 118.87888324 C-315.56176774 109.28179724 -315.56723734 99.68480608 -315.58878708 90.08774185 C-315.60693551 81.95626239 -315.61139507 73.82492132 -315.59776823 65.69343044 C-315.5912194 61.54879496 -315.59119259 57.4044257 -315.60847473 53.25981522 C-315.62411512 49.47053731 -315.62143611 45.68173889 -315.60390647 41.89247333 C-315.59935061 39.8677422 -315.61455984 37.8429967 -315.63038576 35.8183223 C-315.62118816 34.6220046 -315.61199057 33.4256869 -315.60251427 32.19311714 C-315.602949 31.15852273 -315.60338374 30.12392832 -315.60383165 29.05798256 C-314.97350171 25.66890647 -313.77743699 24.48332231 -311.10473633 22.37451172 C-308.80093002 21.8823204 -308.80093002 21.8823204 -306.21990967 21.89349365 C-304.74759888 21.88524567 -304.74759888 21.88524567 -303.24554443 21.87683105 C-302.17523987 21.89121216 -301.1049353 21.90559326 -300.00219727 21.92041016 C-298.87019897 21.91982605 -297.73820068 21.91924194 -296.57189941 21.91864014 C-292.82732565 21.92142859 -289.08354618 21.9525582 -285.33911133 21.98388672 C-282.74408401 21.99134636 -280.14905107 21.9970406 -277.55401611 22.0010376 C-271.41995317 22.01475372 -265.28621841 22.04628422 -259.15227914 22.08643556 C-252.16807911 22.13115922 -245.18386538 22.15314174 -238.19955778 22.1732173 C-223.83446405 22.21501737 -209.46961033 22.28536565 -195.10473633 22.37451172 C-195.0694152 27.66650831 -195.29808841 32.61659066 -196.04223633 37.87451172 C-197.14657705 46.02365029 -197.68988489 54.16482002 -198.10473633 62.37451172 C-196.61896017 61.70141479 -195.14153439 61.00989101 -193.66723633 60.31201172 C-192.84352539 59.92916016 -192.01981445 59.54630859 -191.17114258 59.15185547 C-188.52619326 57.61879567 -186.43086564 56.05202323 -184.08129883 54.12451172 C-178.47502891 49.67671148 -172.29872808 46.62220383 -165.91723633 43.43701172 C-163.5007051 42.21267437 -161.08776292 40.98135076 -158.67504883 39.74951172 C-157.53197266 39.16685547 -156.38889648 38.58419922 -155.21118164 37.98388672 C-151.50677994 36.06472482 -147.89603847 34.03854554 -144.29223633 31.93701172 C-127.80984801 22.34948386 -110.35593564 14.88567489 -92.10473633 9.37451172 C-91.36320312 9.14940918 -90.62166992 8.92430664 -89.85766602 8.69238281 C-78.37068071 5.26227402 -66.72834811 2.49062728 -55.01065063 -0.02252197 C-53.55987256 -0.33509796 -52.11023716 -0.65303803 -50.66195679 -0.97698975 C-32.95534789 -4.9121365 -17.67259754 -3.90407231 0 0 Z " fill="#010101" transform="translate(2014.104736328125,2065.62548828125)"/>
<path d="M0 0 C4.90248628 1.55584388 9.84295801 2.84043089 14.83618164 4.07128906 C43.48348436 11.17910578 69.28214459 23.03518099 88.53222656 45.98974609 C85.13220198 53.96672684 77.16420089 60.71715157 70.62597656 66.20458984 C68.20753298 68.26658372 65.91241166 70.44017107 63.59472656 72.61474609 C56.9788493 78.64579442 49.87679045 83.98855228 42.71533203 89.35058594 C40.60567124 90.93460098 38.50700681 92.53208247 36.41113281 94.13427734 C27.68335758 100.78471707 18.80482136 107.11905199 9.53222656 112.98974609 C8.45070313 113.67681641 7.36917969 114.36388672 6.25488281 115.07177734 C-3.38087413 120.88072951 -13.6263318 124.93084766 -24.07446289 129.03466797 C-26.16247454 129.86791306 -28.22755732 130.7357894 -30.28808594 131.63427734 C-45.93813844 138.30573707 -63.01165785 142.53266728 -79.31640625 147.35253906 C-81.07424605 147.87318839 -82.82992659 148.40112317 -84.58496094 148.93115234 C-90.60974115 150.67998672 -96.69850749 151.76865396 -102.87890625 152.79736328 C-107.63442938 153.6076561 -112.24322362 154.66829593 -116.90527344 155.92724609 C-128.21550342 158.94291855 -139.88566279 160.4117081 -151.46777344 161.98974609 C-152.24926758 162.09649658 -153.03076172 162.20324707 -153.8359375 162.31323242 C-171.05320793 164.45282811 -188.53984512 163.17600498 -205.71777344 161.30224609 C-206.44381775 161.22801422 -207.16986206 161.15378235 -207.91790771 161.07730103 C-225.03452173 159.29000751 -245.63987012 154.48094832 -257.46777344 140.98974609 C-260.57401028 136.99874097 -263.49483625 132.87193051 -266.31298828 128.67333984 C-267.41039501 127.07339971 -268.58786504 125.52925313 -269.76855469 123.98974609 C-271.91543803 120.19938654 -272.11799813 118.29690826 -271.46777344 113.98974609 C-270.14800521 111.00340923 -268.4453816 108.33942243 -266.65527344 105.61474609 C-266.16188477 104.8388916 -265.66849609 104.06303711 -265.16015625 103.26367188 C-264.12618643 101.64256193 -263.08521881 100.02589583 -262.03759766 98.41357422 C-260.5142962 96.06157781 -259.02058765 93.69331265 -257.53417969 91.31787109 C-250.31345887 79.84572105 -242.6760886 70.95650942 -232.46777344 61.98974609 C-230.82087646 60.49091398 -229.17503692 58.99091912 -227.53027344 57.48974609 C-223.25832913 53.6436654 -218.85896359 49.98923237 -214.38574219 46.38037109 C-212.31779415 44.68614861 -210.28457315 42.97760241 -208.26855469 41.22412109 C-184.65083562 20.70179187 -153.80872066 5.36945574 -123.46777344 -2.01025391 C-122.21480469 -2.32607422 -120.96183594 -2.64189453 -119.67089844 -2.96728516 C-112.73691265 -4.58894312 -105.84046803 -5.48173225 -98.76733398 -6.16699219 C-93.45508386 -6.70804956 -88.26528381 -7.56904432 -83.02246094 -8.5769043 C-54.25509129 -14.0594855 -27.59790154 -8.909397 0 0 Z " fill="#FEFEFE" transform="translate(3377.4677734375,2310.01025390625)"/>
<path d="M0 0 C3.15329188 0.73818605 6.31592189 1.42501962 9.48046875 2.11328125 C28.40950881 6.34594303 46.63668162 12.1720252 64.88671875 18.67578125 C65.92844238 19.04348633 66.97016602 19.41119141 68.04345703 19.79003906 C84.81773874 25.79092256 101.95438272 34.44459763 112.2421875 49.68359375 C113.11732319 52.38855863 112.75155546 53.98754498 111.88671875 56.67578125 C109.94599177 59.65689795 107.35050304 62.12015411 104.88671875 64.67578125 C104.38382324 65.19914062 103.88092773 65.7225 103.36279297 66.26171875 C95.93851327 73.94905491 88.35208997 81.12981923 79.88671875 87.67578125 C78.71565645 88.61006401 77.54511751 89.54500299 76.375 90.48046875 C45.33005527 115.02109323 11.30167184 136.04566946 -27.14453125 146.328125 C-32.82790489 147.8517774 -38.46850408 149.51584047 -44.11328125 151.17578125 C-48.11265195 152.34461031 -52.11288615 153.51046375 -56.11328125 154.67578125 C-57.35972412 155.04002197 -57.35972412 155.04002197 -58.63134766 155.41162109 C-74.49363706 160.02532467 -90.31408388 163.63027575 -106.76953125 165.28125 C-110.10433592 165.56008579 -110.10433592 165.56008579 -113.11328125 166.67578125 C-121.39180681 167.83973977 -129.73144615 167.83624317 -138.07421875 167.84375 C-139.38178131 167.8470784 -140.68934387 167.8504068 -142.03652954 167.85383606 C-144.78803331 167.85977779 -147.53950591 167.86168104 -150.29101562 167.86108398 C-153.77918448 167.86098246 -157.26714936 167.87464684 -160.75527 167.89185619 C-164.13242176 167.90578697 -167.50953877 167.90506823 -170.88671875 167.90625 C-172.73576309 167.91702827 -172.73576309 167.91702827 -174.62216187 167.92802429 C-196.82676093 167.87036349 -216.63422713 161.54932111 -233.11328125 146.36328125 C-238.51037511 140.5828424 -243.20622331 133.23569193 -243.86328125 125.17578125 C-242.07799853 102.65687419 -213.35857698 74.3307994 -197.11767578 60.1809082 C-194.49234853 57.95720803 -191.81830637 55.80152269 -189.11328125 53.67578125 C-188.13875 52.90878906 -187.16421875 52.14179688 -186.16015625 51.3515625 C-183.18150253 49.06978632 -180.16550545 46.85812155 -177.11328125 44.67578125 C-176.57574219 44.29099609 -176.03820313 43.90621094 -175.484375 43.50976562 C-164.2594153 35.55332667 -152.2726436 29.07845981 -140.11328125 22.67578125 C-139.37400391 22.28084473 -138.63472656 21.8859082 -137.87304688 21.47900391 C-113.70742386 8.59870389 -88.02193424 2.78785389 -61.11328125 -1.32421875 C-60.3342041 -1.4442627 -59.55512695 -1.56430664 -58.75244141 -1.68798828 C-39.09043191 -4.59846884 -19.37504063 -4.55718849 0 0 Z " fill="#FEFEFE" transform="translate(1410.11328125,2298.32421875)"/>
<path d="M0 0 C7.88160868 11.82241301 5.2965067 29.51882886 5 43 C4.67 43 4.34 43 4 43 C3.98541748 42.42668945 3.97083496 41.85337891 3.95581055 41.26269531 C3.56053337 26.75877476 3.56053337 26.75877476 0.6328125 12.59765625 C-0.38810038 8.40687189 -0.25579489 4.28219592 0 0 Z " fill="#3F4045" transform="translate(2154,2165)"/>
<path d="M0 0 C8.25 0 16.5 0 25 0 C25 0.33 25 0.66 25 1 C24.41508789 1.01981934 23.83017578 1.03963867 23.22753906 1.06005859 C20.56791975 1.15553481 17.90906162 1.26512142 15.25 1.375 C14.32960938 1.4059375 13.40921875 1.436875 12.4609375 1.46875 C11.57148437 1.50742188 10.68203125 1.54609375 9.765625 1.5859375 C8.94868164 1.6173584 8.13173828 1.6487793 7.29003906 1.68115234 C4.83167042 2.02343693 3.14240001 2.7739277 1 4 C0.67 2.68 0.34 1.36 0 0 Z " fill="#131314" transform="translate(501,1530)"/>
<path d="M0 0 C-3.01490557 2.00993705 -5.2149927 2.72623341 -8.6875 3.625 C-9.68136719 3.88539063 -10.67523437 4.14578125 -11.69921875 4.4140625 C-12.45847656 4.60742188 -13.21773437 4.80078125 -14 5 C-12.36119882 2.33694808 -11.11607584 0.33305821 -8.0234375 -0.58984375 C-2.61530172 -1.30765086 -2.61530172 -1.30765086 0 0 Z " fill="#383838" transform="translate(3134,2157)"/>
<path d="M0 0 C4.455 2.97 4.455 2.97 9 6 C8.34 6.66 7.68 7.32 7 8 C3.46399535 6.08864614 1.21027154 4.37357234 -1 1 C-0.67 0.67 -0.34 0.34 0 0 Z " fill="#18181B" transform="translate(2441,2502)"/>
<path d="M0 0 C2 2 2 2 2.125 4.625 C2.08375 5.40875 2.0425 6.1925 2 7 C-0.16874252 6.49396008 -1.99967627 6.00016187 -4 5 C-3.67 4.01 -3.34 3.02 -3 2 C-2.34 2 -1.68 2 -1 2 C-0.67 1.34 -0.34 0.68 0 0 Z " fill="#363334" transform="translate(2495,2557)"/>
<path d="M0 0 C0.33 1.32 0.66 2.64 1 4 C0.34 4 -0.32 4 -1 4 C-1 4.66 -1 5.32 -1 6 C-2.96147874 7.38938077 -4.96166576 8.7260411 -7 10 C-5.6062718 5.56541027 -3.39417765 3.12621626 0 0 Z " fill="#2D2D2D" transform="translate(3100,2310)"/>
<path d="M0 0 C0.33 0.99 0.66 1.98 1 3 C-1.04074305 6.57130033 -2.55753136 8.7050209 -6 11 C-4.54955729 6.89041233 -2.48889248 3.56741255 0 0 Z " fill="#313131" transform="translate(2234,2170)"/>
<path d="M0 0 C2.3125 0.1875 2.3125 0.1875 5 1 C6.8125 3.5625 6.8125 3.5625 8 6 C5 6 5 6 3.61328125 4.6875 C2.40885417 3.125 1.20442708 1.5625 0 0 Z " fill="#16171F" transform="translate(966,2522)"/>
<path d="M0 0 C2.0625 0.4375 2.0625 0.4375 4 1 C4 1.99 4 2.98 4 4 C2.02 4.99 2.02 4.99 0 6 C-0.38218767 4.34385343 -0.71395102 2.67542976 -1 1 C-0.67 0.67 -0.34 0.34 0 0 Z " fill="#28272A" transform="translate(2703,2450)"/>
<path d="M0 0 C2 2 2 2 2.125 5.125 C2.08375 6.07375 2.0425 7.0225 2 8 C1.01 8.33 0.02 8.66 -1 9 C-1.125 2.25 -1.125 2.25 0 0 Z " fill="#161719" transform="translate(1058,2488)"/>
<path d="M0 0 C0.66 0.33 1.32 0.66 2 1 C0.35 2.98 -1.3 4.96 -3 7 C-3.99 6.34 -4.98 5.68 -6 5 C-4.02 3.35 -2.04 1.7 0 0 Z " fill="#161616" transform="translate(1061,2279)"/>
</svg>
